# xmcd
#
# Track frame offsets:
#	150
#	9646
#	20925
#	33314
#	44845
#	55023
#	61770
#	73155
#	83575
#	93083
#	102951
#	112530
#	122212
#	134355
#	144710
#
# Disc length: 2086 seconds
#
# Revision: 0
# Processed by: cddbd v1.5.2PL0 Copyright (c) Steve Scherf et al.
# Submitted via: dBpowerAMP V4.0
#
DISCID=ca08240f
DTITLE=O'Gwynn , James - Pride Of The Louisiana Hayride
DYEAR=2003
DGENRE=Country
TTITLE0=House Of Blue Lovers
TTITLE1=Talk To Me Lonesome Heart
TTITLE2=I Won't Love You Anymore Than You Love Me
TTITLE3=One Bar Stool At A Time
TTITLE4=You're Too Easy To Remember
TTITLE5=Singing In The Jungle
TTITLE6=My Name Is Mud
TTITLE7=Rings On The Bar
TTITLE8=Down On The Corner Of Love
TTITLE9=Don't We All Have The Right
TTITLE10=Easy Money
TTITLE11=You're Getting All Over Me
TTITLE12=Your Heart
TTITLE13=It's Not The Best Way To Live
TTITLE14=Heart Storm
EXTD=Pride Of The Louisiana Hayride\nJames O'Gwynn \nGreatest Hits
EXTT0=
EXTT1=
EXTT2=
EXTT3=
EXTT4=
EXTT5=
EXTT6=
EXTT7=
EXTT8=
EXTT9=
EXTT10=
EXTT11=
EXTT12=
EXTT13=
EXTT14=
PLAYORDER=
